<svg xmlns="http://www.w3.org/2000/svg" width="51.094" height="48" viewBox="0 0 51.094 48">
  <g id="booking" transform="translate(0 -15.5)">
    <path id="Path_23849" data-name="Path 23849" d="M40.587,15.5H10.507a10.507,10.507,0,1,0,0,21.014h7.65V45l-.374-.313a4.863,4.863,0,0,0-6.44.281,4.2,4.2,0,0,0,.273,6.255l6.541,5.488V62a1.5,1.5,0,0,0,1.5,1.5H37.617a1.5,1.5,0,0,0,1.5-1.5V45.183a4.5,4.5,0,0,0-3.935-4.456l-8.04-1V36.514H40.587a10.507,10.507,0,0,0,0-21.014ZM21.151,60.506V57.512H36.12v2.994ZM34.808,43.7a1.5,1.5,0,0,1,1.312,1.485v9.336H20.2l-6.658-5.587a1.212,1.212,0,0,1-.081-1.845,1.86,1.86,0,0,1,2.4-.1l2.832,2.377a1.5,1.5,0,0,0,2.459-1.147V29.072a1.5,1.5,0,1,1,2.994,0V41.047a1.5,1.5,0,0,0,1.312,1.485ZM40.587,33.52H27.138V29.072a4.491,4.491,0,0,0-8.981,0V33.52h-7.65a7.513,7.513,0,1,1,0-15.026h30.08a7.513,7.513,0,0,1,0,15.026Z" fill="#947087"/>
    <path id="Path_23850" data-name="Path 23850" d="M310.319,75.938l-4.929,4.929-1.935-1.935a1.5,1.5,0,1,0-2.117,2.117l2.994,2.994a1.5,1.5,0,0,0,2.117,0l5.988-5.988a1.5,1.5,0,0,0-2.117-2.117Z" transform="translate(-270.872 -54.012)" fill="#947087"/>
  </g>
</svg>
