<svg id="instagram" xmlns="http://www.w3.org/2000/svg" width="36.225" height="36.225" viewBox="0 0 36.225 36.225">
  <g id="Group_19397" data-name="Group 19397">
    <g id="Group_19396" data-name="Group 19396">
      <path id="Path_23844" data-name="Path 23844" d="M25.7,0H10.523A10.535,10.535,0,0,0,0,10.523V25.7A10.535,10.535,0,0,0,10.523,36.225H25.7A10.535,10.535,0,0,0,36.225,25.7V10.523A10.535,10.535,0,0,0,25.7,0Zm7.693,25.7A7.7,7.7,0,0,1,25.7,33.395H10.523A7.7,7.7,0,0,1,2.83,25.7V10.523A7.7,7.7,0,0,1,10.523,2.83H25.7a7.7,7.7,0,0,1,7.693,7.693Z" fill="#fff"/>
    </g>
  </g>
  <g id="Group_19399" data-name="Group 19399" transform="translate(8.349 8.349)">
    <g id="Group_19398" data-name="Group 19398">
      <path id="Path_23845" data-name="Path 23845" d="M127.764,118a9.764,9.764,0,1,0,9.764,9.764A9.775,9.775,0,0,0,127.764,118Zm0,16.7a6.934,6.934,0,1,1,6.934-6.934A6.942,6.942,0,0,1,127.764,134.7Z" transform="translate(-118 -118)" fill="#fff"/>
    </g>
  </g>
  <g id="Group_19401" data-name="Group 19401" transform="translate(26.603 6.792)">
    <g id="Group_19400" data-name="Group 19400">
      <circle id="Ellipse_406" data-name="Ellipse 406" cx="1.5" cy="1.5" r="1.5" transform="translate(0.397 0.433)" fill="#fff"/>
    </g>
  </g>
</svg>
