<svg xmlns="http://www.w3.org/2000/svg" width="283.16" height="82.772" viewBox="0 0 283.16 82.772">
  <g id="Group_19375" data-name="Group 19375" transform="translate(-481.48 -191.947)">
    <g id="Layer_2" data-name="Layer 2" transform="translate(695.383 191.947)">
      <path id="Path_1" data-name="Path 1" d="M849.586,376.6a31.646,31.646,0,0,1-22.468-9.181,32.77,32.77,0,0,1-8.557-16.091c-.685-3.525-.714-7.343-.754-12.626-.025-3.352.058-6.735.248-10.055l1.524.087c-.188,3.288-.27,6.638-.245,9.957.041,5.395.068,8.959.727,12.346a31.2,31.2,0,0,0,8.15,15.315,30.142,30.142,0,0,0,33.727,5.982c7.655-3.683,12.7-10.73,13.7-14.334a45.665,45.665,0,0,0,1.238-7.644c.079-1.159.094-2.113.1-2.738l1.527,0c0,.648-.018,1.637-.1,2.838a46.343,46.343,0,0,1-1.29,7.948c-1.1,3.988-6.335,11.372-14.505,15.3A30.025,30.025,0,0,1,849.586,376.6Z" transform="translate(-815.406 -293.824)" fill="#947087"/>
      <path id="Path_2" data-name="Path 2" d="M1019.856,297.8a82.9,82.9,0,0,1-1.887-8.785,3.007,3.007,0,0,1,.146-1.216,3.526,3.526,0,0,1,2.245-2.062,5.865,5.865,0,0,1,3.179-.12c.6.068,1.356.155,2.349.243,1.014.09,1.806.136,2.015-.149a1.711,1.711,0,0,0,.12-.644,8.371,8.371,0,0,0-.168-2.4,2.721,2.721,0,0,1,.239-2.306,1.752,1.752,0,0,1,.448-.4c-.153-.13-.271-.235-.363-.318-1.053-1.119-.343-3.446.836-4.733a5.943,5.943,0,0,1,1.931-1.343,2.781,2.781,0,0,0,.557-.314c-.038.014-.141-.114-.333-.3-1.384-1.339-4.252-4.113-5.259-6.544-.358-.862-.346-2.117-.323-4.867.012-1.423.065-2.405.1-3.146a5.892,5.892,0,0,0-.124-2.332c-.463-1.492-1.8-2.753-3.97-3.749l.637-1.388c2.582,1.185,4.194,2.76,4.791,4.684a7.2,7.2,0,0,1,.19,2.867c-.039.725-.091,1.686-.1,3.077a15.939,15.939,0,0,0,.206,4.27c.886,2.138,3.7,4.863,4.9,6.026a2.059,2.059,0,0,1,.77,1.607c-.074.847-.769,1.185-1.382,1.483a4.507,4.507,0,0,0-1.472,1,3.452,3.452,0,0,0-.973,2.556,3.779,3.779,0,0,1,.717.759,1.4,1.4,0,0,1,.337.874,1.254,1.254,0,0,1-.734,1.04c-.3.27-.238.638-.131,1.227a9.924,9.924,0,0,1,.187,2.8,2.572,2.572,0,0,1-.41,1.413c-.734,1-2.08.881-3.381.765-1.01-.09-1.779-.178-2.388-.247-1.52-.174-1.862-.2-2.453.027a2.1,2.1,0,0,0-1.353,1.136,1.512,1.512,0,0,0-.066.612,79.309,79.309,0,0,0,1.842,8.509Z" transform="translate(-964.63 -235.884)" fill="#947087"/>
      <path id="Path_3" data-name="Path 3" d="M876.387,265.381q-4.717-6.813-8.759-9.522c-.074-.035-.151-.077-.237-.124-.326-.178-.974-.533-1.732-.876l-.094-.042c-1.654-.341-3.7.613-7.635,2.559l-1.143.578c-.747.382-1.723.881-3.392,1.7-.739.363-1.613.771-2.708,1.242a22.633,22.633,0,0,1-3.345,1.12c-3.273.842-5.4.787-7.332-.189a7.261,7.261,0,0,1-3.412-3.337,1.232,1.232,0,0,1,.047-.978c.451-.85,1.386-.539,2.57-.146a14.341,14.341,0,0,0,5.931.923,13.3,13.3,0,0,0,4.185-1.176c5.016-2,8.2-3.269,10.265-3.934a5.525,5.525,0,0,1-1.028-.219,10.709,10.709,0,0,1-6.189-6.5c-1.35-3.886-.53-9.832.484-12.813a4.082,4.082,0,0,0,.224-2.324,3.093,3.093,0,0,0-.523-1.067c-.105.142-.226.308-.359.506a12.392,12.392,0,0,0-1.687,3.979l-.176.63c-1.108,3.736-4.239,8.032-4.855,8.855a29.036,29.036,0,0,1-12.068,9.146c-3.327,1.489-5.731,2.564-8.658,1.637a10.879,10.879,0,0,1-5.716-4.89,12.022,12.022,0,0,1-1.233-3.75,10.42,10.42,0,0,1,.463-5.76c1.113-2.494,3.455-3.544,5.549-4.3a8.5,8.5,0,0,1-.662-4.092,12.966,12.966,0,0,1-7.614-1.881c-4.986-2.868-7.39-6.033-7.144-9.405a7.532,7.532,0,0,1,2.192-4.582,6.076,6.076,0,0,1,4.077-1.66,6.817,6.817,0,0,1-.317-3.48c.409-2.175,1.856-3.138,3.388-4.157a12.293,12.293,0,0,0,6.081-8.99c.364-1.763.708-3.429,2.509-4.641a6.534,6.534,0,0,1,7.6.187,5.034,5.034,0,0,1,1.5,2.753,23.5,23.5,0,0,0,.773,2.254,25.585,25.585,0,0,0,4.112,6.463c.248.28.489.532.727.76a27.232,27.232,0,0,1-.48-3.2c-.252-2.792-.776-8.6,1.85-10.041,1.143-.628,2.113-.1,3.14.465a8.632,8.632,0,0,0,4.061,1.276,16.451,16.451,0,0,0,5.913-1.141c.653-.219,1.214-.44,1.713-.637,1.486-.585,2.66-1.047,4.121-.54a5.048,5.048,0,0,1,2.732,2.33c1.585,3-.5,7.109-1.9,9.713a2.95,2.95,0,0,1,2.279.014c2.944,1.384,2.5,9.047.885,13.931-.564,1.705-2.061,6.235-6.016,8.788a27.608,27.608,0,0,1-5.59,2.494,4.665,4.665,0,0,1,.818,1.662,5.487,5.487,0,0,1-.247,3.137c-1.107,3.256-1.6,8.69-.5,11.863a9.253,9.253,0,0,0,5.222,5.553,4.688,4.688,0,0,0,.9.175,18.894,18.894,0,0,1,2.163.406c.928.225,1.717.459,2.364.675a10.772,10.772,0,0,1,2.9,1.128,7.708,7.708,0,0,1,.8.475c2.95,1.881,6.092,5.248,9.48,10.142Zm-37.972-6.671a8.62,8.62,0,0,0,2.283,1.755c1.592.8,3.348.823,6.264.073a21.105,21.105,0,0,0,3.121-1.044c1.068-.46,1.919-.856,2.639-1.21,1.658-.815,2.628-1.31,3.37-1.69l1.161-.587c1.082-.535,2.048-1.012,2.926-1.414-1.95.618-5.1,1.872-10.068,3.853a15.564,15.564,0,0,1-4.838,1.365,15.9,15.9,0,0,1-6.54-1Zm-13.9-21.022c-1.925.683-3.95,1.544-4.842,3.543a9.019,9.019,0,0,0-.349,4.9,10.436,10.436,0,0,0,1.067,3.26,9.445,9.445,0,0,0,4.835,4.163c2.268.718,4.157-.046,7.574-1.575a27.245,27.245,0,0,0,11.469-8.668c.589-.787,3.58-4.888,4.614-8.374l.166-.6c.139-.512.3-1.108.542-1.765l-.3.249c-8.874,7.26-11.219,8.309-12.861,8.76-4.08,1.122-6.744.315-7.969-.265a9.052,9.052,0,0,1-2.738-2A9.873,9.873,0,0,1,824.511,237.689ZM826,237.2a8.14,8.14,0,0,0,.838,1.091,7.46,7.46,0,0,0,2.267,1.652c.832.395,3.172,1.2,6.911.173,1.066-.293,2.829-.778,11.524-7.838-1.1.537-2.358,1.1-3.748,1.623a45.313,45.313,0,0,1-9.085,2.377,38.488,38.488,0,0,1-4.724.4A14.766,14.766,0,0,0,826,237.2Zm-1.025-6.045-.014.038a6.341,6.341,0,0,0,.312,4.63,15.854,15.854,0,0,1,4.657-.669,36.663,36.663,0,0,0,4.553-.387,44.413,44.413,0,0,0,8.77-2.3,43.247,43.247,0,0,0,4.087-1.8,19.214,19.214,0,0,1-6.205.351,9.883,9.883,0,0,1-2.907-.755,20.915,20.915,0,0,0-4.383-1.224c-2.4-.471-6.648-.729-7.892.577h0l-.062.067a5.586,5.586,0,0,0-.658.919,4.6,4.6,0,0,0-.24.513Zm-9.656-14.976-.061,0a5.027,5.027,0,0,0-3.6,1.271,6.042,6.042,0,0,0-1.73,3.6c-.137,1.882.859,4.793,6.382,7.97,3.469,2,6.674,1.916,7.267,1.524a6.241,6.241,0,0,1,1.2-1.894l.072-.078c2.222-2.341,8.574-1.168,9.291-1.027a22.23,22.23,0,0,1,4.655,1.3,8.4,8.4,0,0,0,2.523.659,21.341,21.341,0,0,0,8.526-1.053l.283-.081c-1.985-.98-5.577-2.448-7.5-3.2a23.378,23.378,0,0,0-5.154-.308c-1.016.025-2.111.051-3.594-.034-4.078-.234-13.629-.782-17.839-7.43C815.849,217.1,815.585,216.681,815.319,216.175Zm39.6,7.958c-.2.774-.619,2.278-1.087,3.522a24.221,24.221,0,0,0,4.686-2.136c3.5-2.261,4.877-6.419,5.394-7.984,1.641-4.963,1.6-11.28-.085-12.07-.955-.449-3.131.964-4.406,2.857-.123.232-.252.5-.393.839a10.9,10.9,0,0,0-.419,1.154c-.065.366-.108.767-.16,1.241a28.338,28.338,0,0,1-.967,5.112,23.806,23.806,0,0,1-.931,2.753l-.436,1.138c-.26.676-.709,1.839-1.055,3.033C855.021,223.732,854.973,223.915,854.914,224.133Zm-11.388-15.019q.113.352.225.693a70.51,70.51,0,0,0,3.967,9.076c.709,1.5,1.628,3.214,2.733,5.108l.465.788c.2.33.5.842.776,1.279.148.238.332.524.551.85.019-.3.038-.641.048-.985a22.589,22.589,0,0,0-4.59-13.7,8.015,8.015,0,0,0-2.431-2.348,7.842,7.842,0,0,0-1.553-.694Zm-4.729,14.2a22.893,22.893,0,0,1,4.24.394c.628.235,4.2,1.642,6.762,2.82a12.036,12.036,0,0,0-.939-.854,14.072,14.072,0,0,0-5.844-2.624,7.115,7.115,0,0,0-1.073-.179,5.117,5.117,0,0,1-1.055-.194,13.45,13.45,0,0,1-5.962-3.783c-1.657-1.717-2.6-3.475-4.317-6.667-.564-1.05-1.022-1.961-1.419-2.75-1.23-2.445-1.791-3.561-3.056-4.055a2.442,2.442,0,0,0-2.116-.019c-.419.3-.534.863-.718,1.909a17.983,17.983,0,0,1-.415,1.916,12.475,12.475,0,0,1-3.062,5.32,5.8,5.8,0,0,1-2.863,1.434c.135.228.262.43.369.6,3.791,5.985,12.793,6.5,16.636,6.722,1.431.082,2.488.056,3.469.032C837.9,223.323,838.341,223.312,838.8,223.312Zm-13.915-19.684a5.1,5.1,0,0,1,1.807.37c1.811.707,2.54,2.158,3.864,4.791.391.778.843,1.677,1.4,2.713,1.775,3.3,2.621,4.827,4.07,6.329a11.741,11.741,0,0,0,5.265,3.371,3.859,3.859,0,0,0,.794.147,8.362,8.362,0,0,1,1.272.211,16.834,16.834,0,0,1,5.054,1.939c-.81-1.438-1.5-2.764-2.067-3.955a70.765,70.765,0,0,1-4.042-9.264c-.211-.647-.431-1.32-.642-2.038a10.723,10.723,0,0,1-2.48-2.147,26.663,26.663,0,0,1-4.385-6.9,24.987,24.987,0,0,1-.821-2.39,3.7,3.7,0,0,0-1.035-2.037,5.089,5.089,0,0,0-5.751-.075c-1.284.865-1.516,1.986-1.866,3.684a14.716,14.716,0,0,1-2.173,5.672q-.071.106-.142.209.058-.047.12-.092A2.946,2.946,0,0,1,824.882,203.628Zm18.071,3.589a10,10,0,0,0,1.276.527,9.328,9.328,0,0,1,1.823.822,9.513,9.513,0,0,1,2.9,2.778,25.291,25.291,0,0,1,4.718,11.517A18.762,18.762,0,0,1,854.8,219.6a24.268,24.268,0,0,0,1.206-3.338,20.533,20.533,0,0,0,.713-3.929,12.211,12.211,0,0,1,.4-2.362,6.232,6.232,0,0,1,.99-2.433,9.194,9.194,0,0,1,.969-1.423,14.794,14.794,0,0,0,1.607-2.458c1.245-2.312,3.329-6.18,2.06-8.585a3.535,3.535,0,0,0-1.881-1.6c-.891-.309-1.583-.064-3.062.518-.521.2-1.105.435-1.786.663a17.971,17.971,0,0,1-6.469,1.218,10.081,10.081,0,0,1-4.724-1.462c-.954-.522-1.294-.673-1.672-.466-1.75.961-1.234,6.684-1.064,8.564A26.384,26.384,0,0,0,842.953,207.217Zm-20.687-2a15.953,15.953,0,0,1-3.678,3.106c-1.471.979-2.443,1.626-2.733,3.168a5.518,5.518,0,0,0,.39,3.059,4.42,4.42,0,0,0,2.552-1.139,11.114,11.114,0,0,0,2.619-4.608,16.4,16.4,0,0,0,.379-1.76A7.566,7.566,0,0,1,822.267,205.22Z" transform="translate(-808.386 -191.808)" fill="#947087"/>
    </g>
    <g id="Group_19372" data-name="Group 19372" transform="translate(481.48 202.124)">
      <path id="Path_23797" data-name="Path 23797" d="M119.578,148.733a1.882,1.882,0,0,1,.455-1.273,1.508,1.508,0,0,1,1.2-.528,1.6,1.6,0,0,1,1.231.528,1.811,1.811,0,0,1,.486,1.273,1.618,1.618,0,0,1-.486,1.19,1.668,1.668,0,0,1-1.231.486,1.567,1.567,0,0,1-1.2-.486A1.676,1.676,0,0,1,119.578,148.733Zm4.138-9.87a2.891,2.891,0,0,0-.259-1.21,4.291,4.291,0,0,0-.672-1.045,3.889,3.889,0,0,0-1.055-.724,2.912,2.912,0,0,0-1.242-.269h-1.035a2.3,2.3,0,0,1-.941-.207,3.531,3.531,0,0,1-.8-.476,2.244,2.244,0,0,1-.559-.766,2.694,2.694,0,0,1-.207-1.117h3.538a5.867,5.867,0,0,1,2.266.424,6.772,6.772,0,0,1,1.893,1.19,5.863,5.863,0,0,1,1.324,1.924,5.781,5.781,0,0,1,.455,2.276v3.228h2.09v2.545h-8.359a2.387,2.387,0,0,0-1.21.341,6.979,6.979,0,0,0-1.128.817,2.9,2.9,0,0,0-.91,2.255v1.035a3.013,3.013,0,0,1-.155,1.014,2.109,2.109,0,0,1-.507.786,1.978,1.978,0,0,1-.745.466,4.407,4.407,0,0,1-1.2.2v-3.5a5.616,5.616,0,0,1,1.759-4.283,4.928,4.928,0,0,1,1.852-1.262,6.147,6.147,0,0,1,2.245-.414h3.559Zm12.332-1.407a4.072,4.072,0,0,1,.207-.9,2.086,2.086,0,0,1,.5-.817,2.139,2.139,0,0,1,.776-.5,4.1,4.1,0,0,1,1.169-.207v7.056h2.09q0-.207-.01-.383t-.01-.362v-5.9a2.434,2.434,0,0,1,.683-1.8,2.708,2.708,0,0,1,.735-.507,3.365,3.365,0,0,1,1.273-.259v9.208h2.09v2.545H127.461v-2.545h3.518v-1.9a2.464,2.464,0,0,1,.7-1.821,2.318,2.318,0,0,1,.766-.486,5.143,5.143,0,0,1,1.262-.3v4.511h2.359Zm14.939-7.884a1.658,1.658,0,0,1,.455-1.21,1.6,1.6,0,0,1,1.2-.466,1.673,1.673,0,0,1,1.221.466,1.618,1.618,0,0,1,.476,1.21,1.688,1.688,0,0,1-.476,1.231,1.634,1.634,0,0,1-1.221.486,1.567,1.567,0,0,1-1.2-.486A1.73,1.73,0,0,1,150.988,129.573ZM156,142.091v-3.352a2.738,2.738,0,0,0-.29-1.241,4.389,4.389,0,0,0-.766-1.076,2.983,2.983,0,0,0-4.407,0,4.629,4.629,0,0,0-.776,1.076,2.661,2.661,0,0,0-.3,1.241,2.755,2.755,0,0,0,.279,1.231,4.421,4.421,0,0,0,.8,1.107v-.021a4.009,4.009,0,0,0,1.035.766,2.6,2.6,0,0,0,1.179.269Zm-10.863,2.545v-2.545h2.711a6.169,6.169,0,0,1-.828-1.655,5.862,5.862,0,0,1-.228-1.676,5.778,5.778,0,0,1,.445-2.286,6.823,6.823,0,0,1,1.231-1.914,7.5,7.5,0,0,1,1.986-1.221,5.974,5.974,0,0,1,2.3-.435,5.788,5.788,0,0,1,2.245.435,7.557,7.557,0,0,1,1.976,1.221,7.108,7.108,0,0,1,1.252,1.935,5.6,5.6,0,0,1,.466,2.266v3.331h1.738v2.545Zm17.9-15.084a1.559,1.559,0,0,1,.486-1.21,1.754,1.754,0,0,1,1.231-.445,1.68,1.68,0,0,1,1.21.445,1.6,1.6,0,0,1,.466,1.21,1.745,1.745,0,0,1-.466,1.241,1.583,1.583,0,0,1-1.21.5,1.65,1.65,0,0,1-1.231-.5A1.7,1.7,0,0,1,163.03,129.552Zm-3.186,12.539h3.435v-7.035a2.194,2.194,0,0,1,.2-.952,3.281,3.281,0,0,1,.507-.766,3.71,3.71,0,0,1,.786-.6,2.525,2.525,0,0,1,1.179-.269v9.622h2.669v2.545h-8.773Zm15.353,0v2.545h-7.1v-2.545Zm5.3,0v2.545h-7.1v-2.545Zm5.3,0v2.545h-7.1v-2.545Zm5.3,0v2.545h-7.1v-2.545Zm1.9,6.228a1.8,1.8,0,0,1,.486-1.283,1.617,1.617,0,0,1,1.231-.517,1.57,1.57,0,0,1,1.19.517,1.8,1.8,0,0,1,.486,1.283,1.628,1.628,0,0,1-.486,1.179,1.6,1.6,0,0,1-1.19.5,1.65,1.65,0,0,1-1.231-.5A1.628,1.628,0,0,1,192.992,148.319Zm2.338-12.85a2.315,2.315,0,0,1,1.49-2.338,4.7,4.7,0,0,1,1.3-.29v5.939a5.945,5.945,0,0,1-.466,2.328,5.772,5.772,0,0,1-5.494,3.528h-2.835v-2.545h2.835a2.921,2.921,0,0,0,1.159-.248,3.743,3.743,0,0,0,1.055-.683,5.124,5.124,0,0,0,.714-1.159,3.083,3.083,0,0,0,.238-1.221Z" transform="translate(-58.209 -89.128)" fill="#9c7c8f"/>
      <path id="Path_23796" data-name="Path 23796" d="M53.125,17.36,50.08,25.046c-.3.9-.7,1.946-1.2,3.094L40.8,47.556,30.715,24.2,27.621,17.36H22.38l1.747,4.093a8.966,8.966,0,0,1,.7,1.547c.3.7.5,1.3.7,1.747l.4.749L38,53.3h1.647L50.08,28.49l4.692-11.13Zm11.13,0V53.3h5.191V17.36ZM85.267,35.278q0-8.235,3.294-12.428c2.246-2.795,4.292-4.192,8.435-4.192,4.242,0,6.888,1.4,9.134,4.292,2.246,2.845,2.745,6.987,2.745,12.378,0,5.54-.549,9.683-2.795,12.478A10.129,10.129,0,0,1,97.4,52c-4.442,0-6.588-1.4-8.834-4.192C86.365,45.01,85.267,40.868,85.267,35.278Zm-5.889-.2c0,5.49,1.8,9.932,5.29,13.226A16.209,16.209,0,0,0,97.046,53.3,16.173,16.173,0,0,0,109.573,48.3c3.444-3.294,5.191-7.636,5.191-13.027,0-5.54-1.8-9.932-5.44-13.126A16.739,16.739,0,0,0,97,17.36c-5.39,0-8.634,1.6-12.228,4.841S79.378,29.738,79.378,35.078ZM130.236,52.1V17.36h-5.191V53.3h25V52.1Zm31.943-.05V35.028H172.56V33.78H162.179V18.558H178v-1.2H157.038V53.3H177.9V52.048H162.179Zm57.2-34.688H184.438l-.05,1.2h14.823V53.3H204.4V18.558h14.973Z" transform="translate(-22.38 -17.36)" fill="#947087"/>
    </g>
  </g>
</svg>
