<svg xmlns="http://www.w3.org/2000/svg" width="50.296" height="50.287" viewBox="0 0 50.296 50.287">
  <g id="magnifying-glass" transform="translate(0 -0.044)">
    <path id="Path_23847" data-name="Path 23847" d="M44.923,5.408A18.344,18.344,0,0,0,17.981,30.267l-2.139,2.139-1.589-1.589a1.474,1.474,0,0,0-2.084,0L1.519,41.467A5.169,5.169,0,0,0,.481,42.951q-.053.115-.1.233a5.2,5.2,0,0,0,1.139,5.628c1.519,1.519,0,0,0,0a5.163,5.163,0,0,0,2.436,1.37,5.207,5.207,0,0,0,4.91-1.371l10.65-10.65a1.474,1.474,0,0,0,0-2.084l-1.589-1.589,2.139-2.139A18.344,18.344,0,0,0,44.923,5.408ZM3.6,46.728a2.249,2.249,0,0,1,0-3.177L4.99,42.164l3.178,3.177L6.78,46.728A2.249,2.249,0,0,1,3.6,46.728Zm6.648-3.471L7.073,40.08l6.138-6.138,3.177,3.177ZM42.839,29.266a15.4,15.4,0,1,1,4.51-10.887A15.414,15.414,0,0,1,42.839,29.266Z" transform="translate(0 0)" fill="#947087"/>
    <path id="Path_23848" data-name="Path 23848" d="M253.9,99.694h-14.14a1.474,1.474,0,0,0-1.474,1.474v14.144a1.474,1.474,0,0,0,1.474,1.474H253.9a1.474,1.474,0,0,0,1.474-1.474V101.168A1.474,1.474,0,0,0,253.9,99.694Zm-1.474,14.144H241.23v-11.2h4.127v1.87a1.474,1.474,0,0,0,2.947,0v-1.87h4.118Z" transform="translate(-214.874 -89.861)" fill="#947087"/>
  </g>
</svg>
