<svg xmlns="http://www.w3.org/2000/svg" width="40.147" height="32.188" viewBox="0 0 40.147 32.188">
  <g id="twitter" transform="translate(0 -50.753)">
    <g id="Group_19402" data-name="Group 19402" transform="translate(0.001 50.753)">
      <path id="Path_23846" data-name="Path 23846" d="M39.873,55.166l-.013-.016,0,0,0,0-.013-.015a1.167,1.167,0,0,0-1.106-.405q-.256,0-.5.012a7.5,7.5,0,0,0,.806-1.672,1.176,1.176,0,0,0-1.515-1.48c-.4.145-3.06,1.1-3.981,1.444a.5.5,0,0,1-.073.023,1.043,1.043,0,0,1-.193-.137,9.191,9.191,0,0,0-8.8-1.694,8.729,8.729,0,0,0-5.813,6.218,11.747,11.747,0,0,0-.257,2.459A21.556,21.556,0,0,1,4.427,52.557a1.176,1.176,0,0,0-1.908.22,8.623,8.623,0,0,0-1.167,4.811,8.389,8.389,0,0,0,1.161,3.8,1.177,1.177,0,0,0-1.242,1.246,9.075,9.075,0,0,0,1.99,5.36,8.9,8.9,0,0,0,1.125,1.136,1.143,1.143,0,0,0-.226.249,1.176,1.176,0,0,0-.115,1.1,8.93,8.93,0,0,0,5.257,5.3A15.81,15.81,0,0,1,1.249,77.3a1.176,1.176,0,0,0-.691,2.174,24.236,24.236,0,0,0,12.679,3.463A23.239,23.239,0,0,0,25.675,79.4a22.756,22.756,0,0,0,9.2-11.265,23.706,23.706,0,0,0,1.5-8.025,1.046,1.046,0,0,1,.223-.338c.6-.618,1.26-1.237,1.9-1.835.359-.334.728-.677,1.088-1.023a1.173,1.173,0,0,0,.274-1.747Zm-4.959,2.972a3.054,3.054,0,0,0-.882,1.905A21.324,21.324,0,0,1,32.677,67.3,20.628,20.628,0,0,1,11.209,80.5a22.9,22.9,0,0,1-5.366-1.115,18.12,18.12,0,0,0,7.228-3.114,1.177,1.177,0,0,0-.54-2.129,7.1,7.1,0,0,1-5.449-2.929H8.308a1.176,1.176,0,0,0,.427-2.272c-2.671-1.04-4.245-2.58-4.849-4.781L6,64.714a1.176,1.176,0,0,0,.95-2.118A6.511,6.511,0,0,1,3.7,57.433a5.576,5.576,0,0,1,.229-1.994,23.681,23.681,0,0,0,15.527,6.907A1.176,1.176,0,0,0,20.7,61.258c.031-.423.044-.827.056-1.218A10.2,10.2,0,0,1,20.949,58a6.31,6.31,0,0,1,4.263-4.545,6.85,6.85,0,0,1,6.56,1.266,2.485,2.485,0,0,0,2.595.512l.4-.15q-.167.138-.347.275a1.177,1.177,0,0,0-.557,1.518l.016.038a1.176,1.176,0,0,0,1.545.616l.022-.009.107-.026C35.339,57.7,35.124,57.92,34.913,58.138Z" transform="translate(-0.001 -50.753)" fill="#fff"/>
    </g>
  </g>
</svg>
